<?xml version="1.0" encoding="UTF-8" standalone="no"?>
<!-- Created with Inkscape (http://www.inkscape.org/) -->

<svg
   xmlns:dc="http://purl.org/dc/elements/1.1/"
   xmlns:cc="http://creativecommons.org/ns#"
   xmlns:rdf="http://www.w3.org/1999/02/22-rdf-syntax-ns#"
   xmlns:svg="http://www.w3.org/2000/svg"
   xmlns="http://www.w3.org/2000/svg"
   xmlns:sodipodi="http://sodipodi.sourceforge.net/DTD/sodipodi-0.dtd"
   xmlns:inkscape="http://www.inkscape.org/namespaces/inkscape"
   width="592"
   height="145"
   viewBox="0 0 591.99972 145.00002"
   id="svg2"
   version="1.1"
   inkscape:version="0.91 r13725"
   sodipodi:docname="Color Logo.svg">
  <defs
     id="defs4" />
  <sodipodi:namedview
     id="base"
     pagecolor="#ffffff"
     bordercolor="#666666"
     borderopacity="1.0"
     inkscape:pageopacity="0.0"
     inkscape:pageshadow="2"
     inkscape:zoom="0.7"
     inkscape:cx="-242.18667"
     inkscape:cy="-108.28639"
     inkscape:document-units="px"
     inkscape:current-layer="layer1"
     showgrid="false"
     inkscape:window-width="1920"
     inkscape:window-height="1018"
     inkscape:window-x="-8"
     inkscape:window-y="-8"
     inkscape:window-maximized="1"
     borderlayer="false"
     fit-margin-top="0"
     fit-margin-left="0"
     fit-margin-right="0"
     fit-margin-bottom="0"
     units="px" />
  <metadata
     id="metadata7">
    <rdf:RDF>
      <cc:Work
         rdf:about="">
        <dc:format>image/svg+xml</dc:format>
        <dc:type
           rdf:resource="http://purl.org/dc/dcmitype/StillImage" />
        <dc:title />
      </cc:Work>
    </rdf:RDF>
  </metadata>
  <g
     inkscape:label="Layer 1"
     inkscape:groupmode="layer"
     id="layer1"
     transform="translate(-71.159476,-392.19076)">
    <g
       transform="scale(0.9999321,1.0000679)"
       style="font-style:normal;font-weight:normal;font-size:100.78343201px;line-height:125%;font-family:sans-serif;letter-spacing:0px;word-spacing:0px;fill:#d94f5c;fill-opacity:1;stroke:none;stroke-width:1px;stroke-linecap:butt;stroke-linejoin:miter;stroke-opacity:1"
       id="text4136">
      <path
         d="m 143.15486,413.56524 q 0,-8.06267 -15.92378,-8.06267 l -45.654896,0 0,26.90917 45.050196,0 q 16.52848,0 16.52848,-8.26424 l 0,-10.58226 z m 10.07834,11.08618 q 0,16.12535 -27.81622,16.12535 l -43.840796,0 0,21.36609 q 0,4.33368 -5.240738,4.33368 -5.039172,0 -5.039172,-4.33368 l 0,-61.4779 q 0,-3.12428 3.325853,-3.12428 l 51.097203,0 q 27.51387,0 27.51387,15.21829 l 0,11.89245 z"
         style="font-style:normal;font-variant:normal;font-weight:normal;font-stretch:normal;font-family:'Neuropol X';-inkscape-font-specification:'Neuropol X';fill:#d94f5c;fill-opacity:1"
         id="path4140" />
      <path
         d="m 176.18505,406.10727 q 0,4.93839 -6.6517,4.93839 -6.24858,0 -6.24858,-4.93839 0,-5.03917 6.24858,-5.03917 6.6517,0 6.6517,5.03917 z m -1.61253,56.13637 q 0,4.2329 -4.73682,4.2329 -4.53526,0 -4.53526,-4.2329 l 0,-41.52278 q 0,-4.13212 4.33369,-4.13212 4.93839,0 4.93839,4.13212 l 0,41.52278 z"
         style="font-style:normal;font-variant:normal;font-weight:normal;font-stretch:normal;font-family:'Neuropol X';-inkscape-font-specification:'Neuropol X';fill:#d94f5c;fill-opacity:1"
         id="path4142" />
      <path
         d="m 213.50799,465.97263 q -25.80056,0 -25.80056,-15.41987 l 0,-21.56765 q 0,-15.41987 23.48254,-15.41987 l 35.07263,0 q 4.43448,0 4.43448,3.82977 0,4.03134 -4.43448,4.03134 l -36.38281,0 q -12.69872,0 -12.69872,7.25641 l 0,21.36608 q 0,7.96189 14.6136,7.96189 l 34.46793,0 q 3.93056,0 3.93056,4.23291 0,3.72899 -3.93056,3.72899 l -32.75461,0 z"
         style="font-style:normal;font-variant:normal;font-weight:normal;font-stretch:normal;font-family:'Neuropol X';-inkscape-font-specification:'Neuropol X';fill:#d94f5c;fill-opacity:1"
         id="path4144" />
      <path
         d="m 279.54949,438.96267 39.30554,19.75355 q 1.00783,0.50392 1.51175,1.41097 0.6047,0.90705 0.6047,1.61253 0,1.8141 -1.41097,3.32585 -1.41097,1.41097 -3.32585,1.41097 -0.90705,0 -2.21724,-0.6047 l -41.52277,-21.46687 0,17.83867 q 0,4.2329 -4.63604,4.2329 -4.8376,0 -4.8376,-4.2329 l 0,-61.07476 q 0,-4.23291 4.8376,-4.23291 4.63604,0 4.63604,4.23291 l 0,32.55305 42.22826,-20.25747 q 1.2094,-0.50392 1.8141,-0.50392 1.71332,0 3.0235,1.41097 1.41097,1.31018 1.41097,2.82193 0,2.21724 -2.31802,3.22507 l -39.10397,18.54416 z"
         style="font-style:normal;font-variant:normal;font-weight:normal;font-stretch:normal;font-family:'Neuropol X';-inkscape-font-specification:'Neuropol X';fill:#d94f5c;fill-opacity:1"
         id="path4146" />
      <path
         d="m 400.47228,450.75433 q 0,15.2183 -26.60683,15.2183 l -16.52848,0 q -26.80839,0 -26.80839,-15.2183 l 0,-33.96402 q 0,-4.03134 4.63604,-4.03134 4.73682,0 4.73682,4.03134 l 0,33.96402 q 0,7.2564 15.823,7.2564 l 19.65276,0 q 15.41987,0 15.41987,-7.05484 l 0,-34.16558 q 0,-3.93055 4.93839,-3.93055 4.73682,0 4.73682,3.93055 l 0,33.96402 z"
         style="font-style:normal;font-variant:normal;font-weight:normal;font-stretch:normal;font-family:'Neuropol X';-inkscape-font-specification:'Neuropol X';fill:#d94f5c;fill-opacity:1"
         id="path4148" />
      <path
         d="m 473.37021,428.68276 q 0,-7.25641 -15.2183,-7.25641 l -20.96296,0 q -14.51281,0 -14.51281,7.55876 l 0,29.02562 38.19692,0 q 12.49715,0 12.49715,-7.65954 l 0,-21.66843 z m 9.67521,21.46687 q 0,15.823 -23.78489,15.823 l -36.58439,0 0,11.79166 q 0,4.43447 -4.8376,4.43447 -4.63604,0 -4.63604,-4.43447 l 0,-49.08153 q 0,-15.11752 25.09507,-15.11752 l 18.34259,0 q 26.40526,0 26.40526,14.91595 l 0,21.66844 z"
         style="font-style:normal;font-variant:normal;font-weight:normal;font-stretch:normal;font-family:'Neuropol X';-inkscape-font-specification:'Neuropol X';fill:#d94f5c;fill-opacity:1"
         id="path4150" />
      <path
         d="m 531.66869,405.50257 0,56.64029 q 0,4.33368 -5.13995,4.33368 -5.03918,0 -5.03918,-4.33368 l 0,-56.64029 -28.21936,0 q -3.82977,0 -3.82977,-4.23291 0,-3.72898 3.82977,-3.72898 l 66.51707,0 q 3.72898,0 3.72898,3.72898 0,4.23291 -3.72898,4.23291 l -28.11858,0 z"
         style="font-style:normal;font-variant:normal;font-weight:normal;font-stretch:normal;font-family:'Neuropol X';-inkscape-font-specification:'Neuropol X';fill:#d94f5c;fill-opacity:1"
         id="path4152" />
      <path
         d="m 582.46828,406.10727 q 0,4.93839 -6.65171,4.93839 -6.24857,0 -6.24857,-4.93839 0,-5.03917 6.24857,-5.03917 6.65171,0 6.65171,5.03917 z m -1.61254,56.13637 q 0,4.2329 -4.73682,4.2329 -4.53525,0 -4.53525,-4.2329 l 0,-41.52278 q 0,-4.13212 4.33369,-4.13212 4.93838,0 4.93838,4.13212 l 0,41.52278 z"
         style="font-style:normal;font-variant:normal;font-weight:normal;font-stretch:normal;font-family:'Neuropol X';-inkscape-font-specification:'Neuropol X';fill:#d94f5c;fill-opacity:1"
         id="path4154" />
      <path
         d="m 624.83039,434.32663 26.30448,-20.0559 q 1.31018,-1.20941 3.0235,-1.20941 2.01567,0 3.32586,1.51176 1.31018,1.41096 1.31018,3.22507 -0.10078,0.80626 -0.50392,1.61253 -0.40313,0.80627 -1.41096,1.61254 l -24.69195,18.74571 24.69195,19.04807 q 1.51175,1.2094 1.51175,2.82194 0,1.91488 -1.31019,3.52742 -1.2094,1.51175 -2.92272,1.51175 -1.10862,0 -2.4188,-1.10862 l -26.90918,-20.15668 -26.70761,20.15668 q -1.00783,1.00784 -2.4188,1.00784 -1.71332,0 -3.0235,-1.51176 -1.2094,-1.61253 -1.2094,-3.42663 0,-1.61254 1.51175,-2.82194 l 24.59116,-19.04807 -24.59116,-18.74571 q -1.91489,-1.31019 -1.91489,-3.22507 0,-2.01567 1.31019,-3.22507 1.41097,-1.31019 3.22507,-1.31019 0.6047,0 1.51175,0.20157 0.90705,0.20156 1.51175,0.80627 l 26.20369,20.0559 z"
         style="font-style:normal;font-variant:normal;font-weight:normal;font-stretch:normal;font-family:'Neuropol X';-inkscape-font-specification:'Neuropol X';fill:#d94f5c;fill-opacity:1"
         id="path4156" />
    </g>
    <rect
       style="opacity:1;fill:none"
       id="rect4140"
       width="565.71429"
       height="14.285723"
       x="91.428574"
       y="529.50507" />
    <rect
       style="opacity:1;fill:none"
       id="rect4142"
       width="620"
       height="14.285688"
       x="368.57144"
       y="475.21936" />
    <rect
       style="opacity:1;fill:#929292;fill-opacity:1"
       id="rect4146"
       width="566.16675"
       height="5.8089418"
       x="79.386765"
       y="490.28656"
       ry="2.9044709"
       transform="matrix(0.99983274,0.01828896,-0.01665409,0.99986131,0,0)" />
    <rect
       style="opacity:1;fill:#929292;fill-opacity:1;stroke:none;stroke-opacity:1"
       id="rect4146-5"
       width="567.71564"
       height="5.9576287"
       x="112.09646"
       y="468.26782"
       ry="2.9788144"
       transform="matrix(0.99590794,0.09037352,-0.08407436,0.99645948,0,0)" />
  </g>
</svg>
